<?xml version="1.0" encoding="UTF-8" standalone="no"?>
<!DOCTYPE svg PUBLIC "-//W3C//DTD SVG 1.1//EN"
 "http://www.w3.org/Graphics/SVG/1.1/DTD/svg11.dtd">
<!-- Generated by graphviz version 2.47.0 (20210316.0004)
 -->
<!-- Title: dependencies Pages: 1 -->
<svg width="504pt" height="211pt"
 viewBox="0.00 0.00 504.00 211.00" xmlns="http://www.w3.org/2000/svg" xmlns:xlink="http://www.w3.org/1999/xlink">
<g id="graph0" class="graph" transform="scale(1 1) rotate(0) translate(4 207)">
<title>dependencies</title>
<polygon fill="white" stroke="transparent" points="-4,4 -4,-207 500,-207 500,4 -4,4"/>
<text text-anchor="start" x="227.01" y="-42.4" font-family="Times-12" font-weight="bold" font-size="14.00">Legend</text>
<polygon fill="#ffffb3" stroke="transparent" points="14,-10 14,-30 34,-30 34,-10 14,-10"/>
<text text-anchor="start" x="37.63" y="-15.4" font-family="Times-12" font-size="14.00"> &#160;Declarations</text>
<polygon fill="#8dd3c7" stroke="transparent" points="127,-10 127,-30 147,-30 147,-10 127,-10"/>
<text text-anchor="start" x="150.73" y="-15.4" font-family="Times-12" font-size="14.00"> &#160;Module</text>
<polygon fill="#80b1d3" stroke="transparent" points="213,-10 213,-30 233,-30 233,-10 213,-10"/>
<text text-anchor="start" x="236.78" y="-15.4" font-family="Times-12" font-size="14.00"> &#160;Bootstrap</text>
<polygon fill="#fdb462" stroke="transparent" points="310,-10 310,-30 330,-30 330,-10 310,-10"/>
<text text-anchor="start" x="333.67" y="-15.4" font-family="Times-12" font-size="14.00"> &#160;Providers</text>
<polygon fill="#fb8072" stroke="transparent" points="406,-10 406,-30 426,-30 426,-10 406,-10"/>
<text text-anchor="start" x="429.73" y="-15.4" font-family="Times-12" font-size="14.00"> &#160;Exports</text>
<g id="clust1" class="cluster">
<title>cluster_ParejasModule</title>
<polygon fill="none" stroke="black" stroke-dasharray="1,5" points="23,-70 23,-195 473,-195 473,-70 23,-70"/>
</g>
<g id="clust5" class="cluster">
<title>cluster_ParejasModule_imports</title>
<polygon fill="none" stroke="black" points="351,-78 351,-130 465,-130 465,-78 351,-78"/>
</g>
<g id="clust2" class="cluster">
<title>cluster_ParejasModule_declarations</title>
<polygon fill="none" stroke="black" points="31,-78 31,-130 343,-130 343,-78 31,-78"/>
</g>
<!-- ParejasComponent -->
<g id="node1" class="node">
<title>ParejasComponent</title>
<polygon fill="#ffffb3" stroke="black" points="334.75,-122 213.25,-122 213.25,-86 334.75,-86 334.75,-122"/>
<text text-anchor="middle" x="274" y="-99.8" font-family="Times,serif" font-size="14.00">ParejasComponent</text>
</g>
<!-- ParejasModule -->
<g id="node3" class="node">
<title>ParejasModule</title>
<polygon fill="#8dd3c7" stroke="black" points="323.97,-187 320.97,-191 299.97,-191 296.97,-187 224.03,-187 224.03,-151 323.97,-151 323.97,-187"/>
<text text-anchor="middle" x="274" y="-164.8" font-family="Times,serif" font-size="14.00">ParejasModule</text>
</g>
<!-- ParejasComponent&#45;&gt;ParejasModule -->
<g id="edge1" class="edge">
<title>ParejasComponent&#45;&gt;ParejasModule</title>
<path fill="none" stroke="black" d="M274,-122.11C274,-122.11 274,-140.99 274,-140.99"/>
<polygon fill="black" stroke="black" points="270.5,-140.99 274,-150.99 277.5,-140.99 270.5,-140.99"/>
</g>
<!-- ParejasDetailComponent -->
<g id="node2" class="node">
<title>ParejasDetailComponent</title>
<polygon fill="#ffffb3" stroke="black" points="194.96,-122 39.04,-122 39.04,-86 194.96,-86 194.96,-122"/>
<text text-anchor="middle" x="117" y="-99.8" font-family="Times,serif" font-size="14.00">ParejasDetailComponent</text>
</g>
<!-- ParejasDetailComponent&#45;&gt;ParejasModule -->
<g id="edge2" class="edge">
<title>ParejasDetailComponent&#45;&gt;ParejasModule</title>
<path fill="none" stroke="black" d="M117,-122.11C117,-141.34 117,-169 117,-169 117,-169 213.89,-169 213.89,-169"/>
<polygon fill="black" stroke="black" points="213.89,-172.5 223.89,-169 213.89,-165.5 213.89,-172.5"/>
</g>
<!-- SharedModule -->
<g id="node4" class="node">
<title>SharedModule</title>
<polygon fill="#8dd3c7" stroke="black" points="457.42,-122 454.42,-126 433.42,-126 430.42,-122 358.58,-122 358.58,-86 457.42,-86 457.42,-122"/>
<text text-anchor="middle" x="408" y="-99.8" font-family="Times,serif" font-size="14.00">SharedModule</text>
</g>
<!-- SharedModule&#45;&gt;ParejasModule -->
<g id="edge3" class="edge">
<title>SharedModule&#45;&gt;ParejasModule</title>
<path fill="none" stroke="black" d="M408,-122.11C408,-141.34 408,-169 408,-169 408,-169 334.28,-169 334.28,-169"/>
<polygon fill="black" stroke="black" points="334.28,-165.5 324.28,-169 334.28,-172.5 334.28,-165.5"/>
</g>
</g>
</svg>
