<?xml version="1.0" encoding="UTF-8" standalone="no"?>
<!DOCTYPE svg PUBLIC "-//W3C//DTD SVG 1.1//EN"
 "http://www.w3.org/Graphics/SVG/1.1/DTD/svg11.dtd">
<!-- Generated by graphviz version 2.47.0 (20210316.0004)
 -->
<!-- Title: dependencies Pages: 1 -->
<svg width="505pt" height="211pt"
 viewBox="0.00 0.00 505.00 211.00" xmlns="http://www.w3.org/2000/svg" xmlns:xlink="http://www.w3.org/1999/xlink">
<g id="graph0" class="graph" transform="scale(1 1) rotate(0) translate(4 207)">
<title>dependencies</title>
<polygon fill="white" stroke="transparent" points="-4,4 -4,-207 501,-207 501,4 -4,4"/>
<text text-anchor="start" x="227.51" y="-42.4" font-family="Times-12" font-weight="bold" font-size="14.00">Legend</text>
<polygon fill="#ffffb3" stroke="transparent" points="14.5,-10 14.5,-30 34.5,-30 34.5,-10 14.5,-10"/>
<text text-anchor="start" x="38.13" y="-15.4" font-family="Times-12" font-size="14.00"> &#160;Declarations</text>
<polygon fill="#8dd3c7" stroke="transparent" points="127.5,-10 127.5,-30 147.5,-30 147.5,-10 127.5,-10"/>
<text text-anchor="start" x="151.23" y="-15.4" font-family="Times-12" font-size="14.00"> &#160;Module</text>
<polygon fill="#80b1d3" stroke="transparent" points="213.5,-10 213.5,-30 233.5,-30 233.5,-10 213.5,-10"/>
<text text-anchor="start" x="237.28" y="-15.4" font-family="Times-12" font-size="14.00"> &#160;Bootstrap</text>
<polygon fill="#fdb462" stroke="transparent" points="310.5,-10 310.5,-30 330.5,-30 330.5,-10 310.5,-10"/>
<text text-anchor="start" x="334.17" y="-15.4" font-family="Times-12" font-size="14.00"> &#160;Providers</text>
<polygon fill="#fb8072" stroke="transparent" points="406.5,-10 406.5,-30 426.5,-30 426.5,-10 406.5,-10"/>
<text text-anchor="start" x="430.23" y="-15.4" font-family="Times-12" font-size="14.00"> &#160;Exports</text>
<g id="clust1" class="cluster">
<title>cluster_JugadoresModule</title>
<polygon fill="none" stroke="black" stroke-dasharray="1,5" points="8,-70 8,-195 489,-195 489,-70 8,-70"/>
</g>
<g id="clust5" class="cluster">
<title>cluster_JugadoresModule_imports</title>
<polygon fill="none" stroke="black" points="367,-78 367,-130 481,-130 481,-78 367,-78"/>
</g>
<g id="clust2" class="cluster">
<title>cluster_JugadoresModule_declarations</title>
<polygon fill="none" stroke="black" points="16,-78 16,-130 359,-130 359,-78 16,-78"/>
</g>
<!-- JugadoresComponent -->
<g id="node1" class="node">
<title>JugadoresComponent</title>
<polygon fill="#ffffb3" stroke="black" points="350.81,-122 213.19,-122 213.19,-86 350.81,-86 350.81,-122"/>
<text text-anchor="middle" x="282" y="-99.8" font-family="Times,serif" font-size="14.00">JugadoresComponent</text>
</g>
<!-- JugadoresModule -->
<g id="node3" class="node">
<title>JugadoresModule</title>
<polygon fill="#8dd3c7" stroke="black" points="339.53,-187 336.53,-191 315.53,-191 312.53,-187 224.47,-187 224.47,-151 339.53,-151 339.53,-187"/>
<text text-anchor="middle" x="282" y="-164.8" font-family="Times,serif" font-size="14.00">JugadoresModule</text>
</g>
<!-- JugadoresComponent&#45;&gt;JugadoresModule -->
<g id="edge1" class="edge">
<title>JugadoresComponent&#45;&gt;JugadoresModule</title>
<path fill="none" stroke="black" d="M282,-122.11C282,-122.11 282,-140.99 282,-140.99"/>
<polygon fill="black" stroke="black" points="278.5,-140.99 282,-150.99 285.5,-140.99 278.5,-140.99"/>
</g>
<!-- JugadoresDetailComponent -->
<g id="node2" class="node">
<title>JugadoresDetailComponent</title>
<polygon fill="#ffffb3" stroke="black" points="195.52,-122 24.48,-122 24.48,-86 195.52,-86 195.52,-122"/>
<text text-anchor="middle" x="110" y="-99.8" font-family="Times,serif" font-size="14.00">JugadoresDetailComponent</text>
</g>
<!-- JugadoresDetailComponent&#45;&gt;JugadoresModule -->
<g id="edge2" class="edge">
<title>JugadoresDetailComponent&#45;&gt;JugadoresModule</title>
<path fill="none" stroke="black" d="M110,-122.11C110,-141.34 110,-169 110,-169 110,-169 214.25,-169 214.25,-169"/>
<polygon fill="black" stroke="black" points="214.25,-172.5 224.25,-169 214.25,-165.5 214.25,-172.5"/>
</g>
<!-- SharedModule -->
<g id="node4" class="node">
<title>SharedModule</title>
<polygon fill="#8dd3c7" stroke="black" points="473.42,-122 470.42,-126 449.42,-126 446.42,-122 374.58,-122 374.58,-86 473.42,-86 473.42,-122"/>
<text text-anchor="middle" x="424" y="-99.8" font-family="Times,serif" font-size="14.00">SharedModule</text>
</g>
<!-- SharedModule&#45;&gt;JugadoresModule -->
<g id="edge3" class="edge">
<title>SharedModule&#45;&gt;JugadoresModule</title>
<path fill="none" stroke="black" d="M424,-122.11C424,-141.34 424,-169 424,-169 424,-169 349.76,-169 349.76,-169"/>
<polygon fill="black" stroke="black" points="349.76,-165.5 339.76,-169 349.76,-172.5 349.76,-165.5"/>
</g>
</g>
</svg>
