<?xml version="1.0" encoding="UTF-8" standalone="no"?>
<!DOCTYPE svg PUBLIC "-//W3C//DTD SVG 1.1//EN"
 "http://www.w3.org/Graphics/SVG/1.1/DTD/svg11.dtd">
<!-- Generated by graphviz version 2.47.0 (20210316.0004)
 -->
<!-- Title: dependencies Pages: 1 -->
<svg width="519pt" height="211pt"
 viewBox="0.00 0.00 519.00 211.00" xmlns="http://www.w3.org/2000/svg" xmlns:xlink="http://www.w3.org/1999/xlink">
<g id="graph0" class="graph" transform="scale(1 1) rotate(0) translate(4 207)">
<title>dependencies</title>
<polygon fill="white" stroke="transparent" points="-4,4 -4,-207 515,-207 515,4 -4,4"/>
<text text-anchor="start" x="234.51" y="-42.4" font-family="Times-12" font-weight="bold" font-size="14.00">Legend</text>
<polygon fill="#ffffb3" stroke="transparent" points="21.5,-10 21.5,-30 41.5,-30 41.5,-10 21.5,-10"/>
<text text-anchor="start" x="45.13" y="-15.4" font-family="Times-12" font-size="14.00"> &#160;Declarations</text>
<polygon fill="#8dd3c7" stroke="transparent" points="134.5,-10 134.5,-30 154.5,-30 154.5,-10 134.5,-10"/>
<text text-anchor="start" x="158.23" y="-15.4" font-family="Times-12" font-size="14.00"> &#160;Module</text>
<polygon fill="#80b1d3" stroke="transparent" points="220.5,-10 220.5,-30 240.5,-30 240.5,-10 220.5,-10"/>
<text text-anchor="start" x="244.28" y="-15.4" font-family="Times-12" font-size="14.00"> &#160;Bootstrap</text>
<polygon fill="#fdb462" stroke="transparent" points="317.5,-10 317.5,-30 337.5,-30 337.5,-10 317.5,-10"/>
<text text-anchor="start" x="341.17" y="-15.4" font-family="Times-12" font-size="14.00"> &#160;Providers</text>
<polygon fill="#fb8072" stroke="transparent" points="413.5,-10 413.5,-30 433.5,-30 433.5,-10 413.5,-10"/>
<text text-anchor="start" x="437.23" y="-15.4" font-family="Times-12" font-size="14.00"> &#160;Exports</text>
<g id="clust1" class="cluster">
<title>cluster_UbicacionesModule</title>
<polygon fill="none" stroke="black" stroke-dasharray="1,5" points="8,-70 8,-195 503,-195 503,-70 8,-70"/>
</g>
<g id="clust2" class="cluster">
<title>cluster_UbicacionesModule_declarations</title>
<polygon fill="none" stroke="black" points="138,-78 138,-130 495,-130 495,-78 138,-78"/>
</g>
<g id="clust5" class="cluster">
<title>cluster_UbicacionesModule_imports</title>
<polygon fill="none" stroke="black" points="16,-78 16,-130 130,-130 130,-78 16,-78"/>
</g>
<!-- UbicacionComponent -->
<g id="node1" class="node">
<title>UbicacionComponent</title>
<polygon fill="#ffffb3" stroke="black" points="487.36,-122 348.64,-122 348.64,-86 487.36,-86 487.36,-122"/>
<text text-anchor="middle" x="418" y="-99.8" font-family="Times,serif" font-size="14.00">UbicacionComponent</text>
</g>
<!-- UbicacionesModule -->
<g id="node3" class="node">
<title>UbicacionesModule</title>
<polygon fill="#8dd3c7" stroke="black" points="302.24,-187 299.24,-191 278.24,-191 275.24,-187 173.76,-187 173.76,-151 302.24,-151 302.24,-187"/>
<text text-anchor="middle" x="238" y="-164.8" font-family="Times,serif" font-size="14.00">UbicacionesModule</text>
</g>
<!-- UbicacionComponent&#45;&gt;UbicacionesModule -->
<g id="edge1" class="edge">
<title>UbicacionComponent&#45;&gt;UbicacionesModule</title>
<path fill="none" stroke="black" d="M418,-122.11C418,-141.34 418,-169 418,-169 418,-169 312.48,-169 312.48,-169"/>
<polygon fill="black" stroke="black" points="312.48,-165.5 302.48,-169 312.48,-172.5 312.48,-165.5"/>
</g>
<!-- UbicacionesDetailComponent -->
<g id="node2" class="node">
<title>UbicacionesDetailComponent</title>
<polygon fill="#ffffb3" stroke="black" points="330.23,-122 145.77,-122 145.77,-86 330.23,-86 330.23,-122"/>
<text text-anchor="middle" x="238" y="-99.8" font-family="Times,serif" font-size="14.00">UbicacionesDetailComponent</text>
</g>
<!-- UbicacionesDetailComponent&#45;&gt;UbicacionesModule -->
<g id="edge2" class="edge">
<title>UbicacionesDetailComponent&#45;&gt;UbicacionesModule</title>
<path fill="none" stroke="black" d="M238,-122.11C238,-122.11 238,-140.99 238,-140.99"/>
<polygon fill="black" stroke="black" points="234.5,-140.99 238,-150.99 241.5,-140.99 234.5,-140.99"/>
</g>
<!-- SharedModule -->
<g id="node4" class="node">
<title>SharedModule</title>
<polygon fill="#8dd3c7" stroke="black" points="122.42,-122 119.42,-126 98.42,-126 95.42,-122 23.58,-122 23.58,-86 122.42,-86 122.42,-122"/>
<text text-anchor="middle" x="73" y="-99.8" font-family="Times,serif" font-size="14.00">SharedModule</text>
</g>
<!-- SharedModule&#45;&gt;UbicacionesModule -->
<g id="edge3" class="edge">
<title>SharedModule&#45;&gt;UbicacionesModule</title>
<path fill="none" stroke="black" d="M73,-122.11C73,-141.34 73,-169 73,-169 73,-169 163.73,-169 163.73,-169"/>
<polygon fill="black" stroke="black" points="163.73,-172.5 173.73,-169 163.73,-165.5 163.73,-172.5"/>
</g>
</g>
</svg>
