<?xml version="1.0" encoding="UTF-8" standalone="no"?>
<!DOCTYPE svg PUBLIC "-//W3C//DTD SVG 1.1//EN"
 "http://www.w3.org/Graphics/SVG/1.1/DTD/svg11.dtd">
<!-- Generated by graphviz version 2.47.0 (20210316.0004)
 -->
<!-- Title: dependencies Pages: 1 -->
<svg width="676pt" height="284pt"
 viewBox="0.00 0.00 676.00 284.00" xmlns="http://www.w3.org/2000/svg" xmlns:xlink="http://www.w3.org/1999/xlink">
<g id="graph0" class="graph" transform="scale(1 1) rotate(0) translate(4 280)">
<title>dependencies</title>
<polygon fill="white" stroke="transparent" points="-4,4 -4,-280 672,-280 672,4 -4,4"/>
<text text-anchor="start" x="313.01" y="-42.4" font-family="Times-12" font-weight="bold" font-size="14.00">Legend</text>
<polygon fill="#ffffb3" stroke="transparent" points="100,-10 100,-30 120,-30 120,-10 100,-10"/>
<text text-anchor="start" x="123.63" y="-15.4" font-family="Times-12" font-size="14.00"> &#160;Declarations</text>
<polygon fill="#8dd3c7" stroke="transparent" points="213,-10 213,-30 233,-30 233,-10 213,-10"/>
<text text-anchor="start" x="236.73" y="-15.4" font-family="Times-12" font-size="14.00"> &#160;Module</text>
<polygon fill="#80b1d3" stroke="transparent" points="299,-10 299,-30 319,-30 319,-10 299,-10"/>
<text text-anchor="start" x="322.78" y="-15.4" font-family="Times-12" font-size="14.00"> &#160;Bootstrap</text>
<polygon fill="#fdb462" stroke="transparent" points="396,-10 396,-30 416,-30 416,-10 396,-10"/>
<text text-anchor="start" x="419.67" y="-15.4" font-family="Times-12" font-size="14.00"> &#160;Providers</text>
<polygon fill="#fb8072" stroke="transparent" points="492,-10 492,-30 512,-30 512,-10 492,-10"/>
<text text-anchor="start" x="515.73" y="-15.4" font-family="Times-12" font-size="14.00"> &#160;Exports</text>
<g id="clust1" class="cluster">
<title>cluster_AppModule</title>
<polygon fill="none" stroke="black" stroke-dasharray="1,5" points="8,-70 8,-268 660,-268 660,-70 8,-70"/>
</g>
<g id="clust6" class="cluster">
<title>cluster_AppModule_bootstrap</title>
<polygon fill="none" stroke="black" points="300,-208 300,-260 424,-260 424,-208 300,-208"/>
</g>
<g id="clust2" class="cluster">
<title>cluster_AppModule_declarations</title>
<polygon fill="none" stroke="black" points="530,-78 530,-130 652,-130 652,-78 530,-78"/>
</g>
<g id="clust4" class="cluster">
<title>cluster_AppModule_imports</title>
<polygon fill="none" stroke="black" points="16,-78 16,-130 522,-130 522,-78 16,-78"/>
</g>
<g id="clust5" class="cluster">
<title>cluster_AppModule_exports</title>
<polygon fill="none" stroke="black" points="222,-208 222,-260 292,-260 292,-208 222,-208"/>
</g>
<!-- AppComponent -->
<g id="node1" class="node">
<title>AppComponent</title>
<polygon fill="#ffffb3" stroke="black" points="643.94,-122 538.06,-122 538.06,-86 643.94,-86 643.94,-122"/>
<text text-anchor="middle" x="591" y="-99.8" font-family="Times,serif" font-size="14.00">AppComponent</text>
</g>
<!-- AppModule -->
<g id="node2" class="node">
<title>AppModule</title>
<polygon fill="#8dd3c7" stroke="black" points="351.66,-187 348.66,-191 327.66,-191 324.66,-187 268.34,-187 268.34,-151 351.66,-151 351.66,-187"/>
<text text-anchor="middle" x="310" y="-164.8" font-family="Times,serif" font-size="14.00">AppModule</text>
</g>
<!-- AppComponent&#45;&gt;AppModule -->
<g id="edge1" class="edge">
<title>AppComponent&#45;&gt;AppModule</title>
<path fill="none" stroke="black" d="M591,-122.28C591,-143.32 591,-175 591,-175 591,-175 361.77,-175 361.77,-175"/>
<polygon fill="black" stroke="black" points="361.77,-171.5 351.77,-175 361.77,-178.5 361.77,-171.5"/>
</g>
<!-- NgIf  -->
<g id="node7" class="node">
<title>NgIf </title>
<polygon fill="#fb8072" stroke="black" points="284,-252 230,-252 230,-216 284,-216 284,-252"/>
<text text-anchor="middle" x="257" y="-229.8" font-family="Times,serif" font-size="14.00">NgIf </text>
</g>
<!-- AppModule&#45;&gt;NgIf  -->
<g id="edge6" class="edge">
<title>AppModule&#45;&gt;NgIf </title>
<path fill="none" stroke="black" stroke-dasharray="5,2" d="M276.09,-187.11C276.09,-187.11 276.09,-205.99 276.09,-205.99"/>
<polygon fill="black" stroke="black" points="272.59,-205.99 276.09,-215.99 279.59,-205.99 272.59,-205.99"/>
</g>
<!-- AppComponent  -->
<g id="node8" class="node">
<title>AppComponent </title>
<polygon fill="#80b1d3" stroke="black" points="416.44,-252 307.56,-252 307.56,-216 416.44,-216 416.44,-252"/>
<text text-anchor="middle" x="362" y="-229.8" font-family="Times,serif" font-size="14.00">AppComponent </text>
</g>
<!-- AppModule&#45;&gt;AppComponent  -->
<g id="edge7" class="edge">
<title>AppModule&#45;&gt;AppComponent </title>
<path fill="none" stroke="black" stroke-dasharray="1,5" d="M329.68,-187.11C329.68,-187.11 329.68,-205.99 329.68,-205.99"/>
<polygon fill="black" stroke="black" points="326.18,-205.99 329.68,-215.99 333.18,-205.99 326.18,-205.99"/>
</g>
<!-- AppRoutingModule -->
<g id="node3" class="node">
<title>AppRoutingModule</title>
<polygon fill="#8dd3c7" stroke="black" points="514.27,-122 511.27,-126 490.27,-126 487.27,-122 385.73,-122 385.73,-86 514.27,-86 514.27,-122"/>
<text text-anchor="middle" x="450" y="-99.8" font-family="Times,serif" font-size="14.00">AppRoutingModule</text>
</g>
<!-- AppRoutingModule&#45;&gt;AppModule -->
<g id="edge2" class="edge">
<title>AppRoutingModule&#45;&gt;AppModule</title>
<path fill="none" stroke="black" d="M401.04,-122.02C401.04,-139.37 401.04,-163 401.04,-163 401.04,-163 361.79,-163 361.79,-163"/>
<polygon fill="black" stroke="black" points="361.79,-159.5 351.79,-163 361.79,-166.5 361.79,-159.5"/>
</g>
<!-- JugadoresModule -->
<g id="node4" class="node">
<title>JugadoresModule</title>
<polygon fill="#8dd3c7" stroke="black" points="367.53,-122 364.53,-126 343.53,-126 340.53,-122 252.47,-122 252.47,-86 367.53,-86 367.53,-122"/>
<text text-anchor="middle" x="310" y="-99.8" font-family="Times,serif" font-size="14.00">JugadoresModule</text>
</g>
<!-- JugadoresModule&#45;&gt;AppModule -->
<g id="edge3" class="edge">
<title>JugadoresModule&#45;&gt;AppModule</title>
<path fill="none" stroke="black" d="M310,-122.11C310,-122.11 310,-140.99 310,-140.99"/>
<polygon fill="black" stroke="black" points="306.5,-140.99 310,-150.99 313.5,-140.99 306.5,-140.99"/>
</g>
<!-- OauthModule -->
<g id="node5" class="node">
<title>OauthModule</title>
<polygon fill="#8dd3c7" stroke="black" points="233.76,-122 230.76,-126 209.76,-126 206.76,-122 140.24,-122 140.24,-86 233.76,-86 233.76,-122"/>
<text text-anchor="middle" x="187" y="-99.8" font-family="Times,serif" font-size="14.00">OauthModule</text>
</g>
<!-- OauthModule&#45;&gt;AppModule -->
<g id="edge4" class="edge">
<title>OauthModule&#45;&gt;AppModule</title>
<path fill="none" stroke="black" d="M185.06,-122.02C185.06,-139.37 185.06,-163 185.06,-163 185.06,-163 258.05,-163 258.05,-163"/>
<polygon fill="black" stroke="black" points="258.05,-166.5 268.05,-163 258.05,-159.5 258.05,-166.5"/>
</g>
<!-- SharedModule -->
<g id="node6" class="node">
<title>SharedModule</title>
<polygon fill="#8dd3c7" stroke="black" points="122.42,-122 119.42,-126 98.42,-126 95.42,-122 23.58,-122 23.58,-86 122.42,-86 122.42,-122"/>
<text text-anchor="middle" x="73" y="-99.8" font-family="Times,serif" font-size="14.00">SharedModule</text>
</g>
<!-- SharedModule&#45;&gt;AppModule -->
<g id="edge5" class="edge">
<title>SharedModule&#45;&gt;AppModule</title>
<path fill="none" stroke="black" d="M73,-122.28C73,-143.32 73,-175 73,-175 73,-175 258.17,-175 258.17,-175"/>
<polygon fill="black" stroke="black" points="258.17,-178.5 268.17,-175 258.17,-171.5 258.17,-178.5"/>
</g>
</g>
</svg>
