<?xml version="1.0" encoding="UTF-8" standalone="no"?>
<!DOCTYPE svg PUBLIC "-//W3C//DTD SVG 1.1//EN"
 "http://www.w3.org/Graphics/SVG/1.1/DTD/svg11.dtd">
<!-- Generated by graphviz version 2.47.0 (20210316.0004)
 -->
<!-- Title: dependencies Pages: 1 -->
<svg width="1064pt" height="284pt"
 viewBox="0.00 0.00 1064.00 284.00" xmlns="http://www.w3.org/2000/svg" xmlns:xlink="http://www.w3.org/1999/xlink">
<g id="graph0" class="graph" transform="scale(1 1) rotate(0) translate(4 280)">
<title>dependencies</title>
<polygon fill="white" stroke="transparent" points="-4,4 -4,-280 1060,-280 1060,4 -4,4"/>
<text text-anchor="start" x="507.01" y="-42.4" font-family="Times-12" font-weight="bold" font-size="14.00">Legend</text>
<polygon fill="#ffffb3" stroke="transparent" points="294,-10 294,-30 314,-30 314,-10 294,-10"/>
<text text-anchor="start" x="317.63" y="-15.4" font-family="Times-12" font-size="14.00"> &#160;Declarations</text>
<polygon fill="#8dd3c7" stroke="transparent" points="407,-10 407,-30 427,-30 427,-10 407,-10"/>
<text text-anchor="start" x="430.73" y="-15.4" font-family="Times-12" font-size="14.00"> &#160;Module</text>
<polygon fill="#80b1d3" stroke="transparent" points="493,-10 493,-30 513,-30 513,-10 493,-10"/>
<text text-anchor="start" x="516.78" y="-15.4" font-family="Times-12" font-size="14.00"> &#160;Bootstrap</text>
<polygon fill="#fdb462" stroke="transparent" points="590,-10 590,-30 610,-30 610,-10 590,-10"/>
<text text-anchor="start" x="613.67" y="-15.4" font-family="Times-12" font-size="14.00"> &#160;Providers</text>
<polygon fill="#fb8072" stroke="transparent" points="686,-10 686,-30 706,-30 706,-10 686,-10"/>
<text text-anchor="start" x="709.73" y="-15.4" font-family="Times-12" font-size="14.00"> &#160;Exports</text>
<g id="clust1" class="cluster">
<title>cluster_AppModule</title>
<polygon fill="none" stroke="black" stroke-dasharray="1,5" points="8,-70 8,-268 1048,-268 1048,-70 8,-70"/>
</g>
<g id="clust5" class="cluster">
<title>cluster_AppModule_exports</title>
<polygon fill="none" stroke="black" points="429,-208 429,-260 499,-260 499,-208 429,-208"/>
</g>
<g id="clust6" class="cluster">
<title>cluster_AppModule_bootstrap</title>
<polygon fill="none" stroke="black" points="507,-208 507,-260 631,-260 631,-208 507,-208"/>
</g>
<g id="clust2" class="cluster">
<title>cluster_AppModule_declarations</title>
<polygon fill="none" stroke="black" points="918,-78 918,-130 1040,-130 1040,-78 918,-78"/>
</g>
<g id="clust4" class="cluster">
<title>cluster_AppModule_imports</title>
<polygon fill="none" stroke="black" points="16,-78 16,-130 910,-130 910,-78 16,-78"/>
</g>
<!-- AppComponent -->
<g id="node1" class="node">
<title>AppComponent</title>
<polygon fill="#ffffb3" stroke="black" points="1031.94,-122 926.06,-122 926.06,-86 1031.94,-86 1031.94,-122"/>
<text text-anchor="middle" x="979" y="-99.8" font-family="Times,serif" font-size="14.00">AppComponent</text>
</g>
<!-- AppModule -->
<g id="node2" class="node">
<title>AppModule</title>
<polygon fill="#8dd3c7" stroke="black" points="558.66,-187 555.66,-191 534.66,-191 531.66,-187 475.34,-187 475.34,-151 558.66,-151 558.66,-187"/>
<text text-anchor="middle" x="517" y="-164.8" font-family="Times,serif" font-size="14.00">AppModule</text>
</g>
<!-- AppComponent&#45;&gt;AppModule -->
<g id="edge1" class="edge">
<title>AppComponent&#45;&gt;AppModule</title>
<path fill="none" stroke="black" d="M979,-122.29C979,-144.21 979,-178 979,-178 979,-178 568.81,-178 568.81,-178"/>
<polygon fill="black" stroke="black" points="568.81,-174.5 558.81,-178 568.81,-181.5 568.81,-174.5"/>
</g>
<!-- NgIf  -->
<g id="node10" class="node">
<title>NgIf </title>
<polygon fill="#fb8072" stroke="black" points="491,-252 437,-252 437,-216 491,-216 491,-252"/>
<text text-anchor="middle" x="464" y="-229.8" font-family="Times,serif" font-size="14.00">NgIf </text>
</g>
<!-- AppModule&#45;&gt;NgIf  -->
<g id="edge9" class="edge">
<title>AppModule&#45;&gt;NgIf </title>
<path fill="none" stroke="black" stroke-dasharray="5,2" d="M483.09,-187.11C483.09,-187.11 483.09,-205.99 483.09,-205.99"/>
<polygon fill="black" stroke="black" points="479.59,-205.99 483.09,-215.99 486.59,-205.99 479.59,-205.99"/>
</g>
<!-- AppComponent  -->
<g id="node11" class="node">
<title>AppComponent </title>
<polygon fill="#80b1d3" stroke="black" points="623.44,-252 514.56,-252 514.56,-216 623.44,-216 623.44,-252"/>
<text text-anchor="middle" x="569" y="-229.8" font-family="Times,serif" font-size="14.00">AppComponent </text>
</g>
<!-- AppModule&#45;&gt;AppComponent  -->
<g id="edge10" class="edge">
<title>AppModule&#45;&gt;AppComponent </title>
<path fill="none" stroke="black" stroke-dasharray="1,5" d="M536.68,-187.11C536.68,-187.11 536.68,-205.99 536.68,-205.99"/>
<polygon fill="black" stroke="black" points="533.18,-205.99 536.68,-215.99 540.18,-205.99 533.18,-205.99"/>
</g>
<!-- AppRoutingModule -->
<g id="node3" class="node">
<title>AppRoutingModule</title>
<polygon fill="#8dd3c7" stroke="black" points="902.27,-122 899.27,-126 878.27,-126 875.27,-122 773.73,-122 773.73,-86 902.27,-86 902.27,-122"/>
<text text-anchor="middle" x="838" y="-99.8" font-family="Times,serif" font-size="14.00">AppRoutingModule</text>
</g>
<!-- AppRoutingModule&#45;&gt;AppModule -->
<g id="edge2" class="edge">
<title>AppRoutingModule&#45;&gt;AppModule</title>
<path fill="none" stroke="black" d="M838,-122.11C838,-141.34 838,-169 838,-169 838,-169 568.97,-169 568.97,-169"/>
<polygon fill="black" stroke="black" points="568.97,-165.5 558.97,-169 568.97,-172.5 568.97,-165.5"/>
</g>
<!-- JugadoresModule -->
<g id="node4" class="node">
<title>JugadoresModule</title>
<polygon fill="#8dd3c7" stroke="black" points="755.53,-122 752.53,-126 731.53,-126 728.53,-122 640.47,-122 640.47,-86 755.53,-86 755.53,-122"/>
<text text-anchor="middle" x="698" y="-99.8" font-family="Times,serif" font-size="14.00">JugadoresModule</text>
</g>
<!-- JugadoresModule&#45;&gt;AppModule -->
<g id="edge3" class="edge">
<title>JugadoresModule&#45;&gt;AppModule</title>
<path fill="none" stroke="black" d="M698,-122.03C698,-138.4 698,-160 698,-160 698,-160 568.98,-160 568.98,-160"/>
<polygon fill="black" stroke="black" points="568.98,-156.5 558.98,-160 568.98,-163.5 568.98,-156.5"/>
</g>
<!-- OauthModule -->
<g id="node5" class="node">
<title>OauthModule</title>
<polygon fill="#8dd3c7" stroke="black" points="621.76,-122 618.76,-126 597.76,-126 594.76,-122 528.24,-122 528.24,-86 621.76,-86 621.76,-122"/>
<text text-anchor="middle" x="575" y="-99.8" font-family="Times,serif" font-size="14.00">OauthModule</text>
</g>
<!-- OauthModule&#45;&gt;AppModule -->
<g id="edge4" class="edge">
<title>OauthModule&#45;&gt;AppModule</title>
<path fill="none" stroke="black" d="M543.47,-122.11C543.47,-122.11 543.47,-140.99 543.47,-140.99"/>
<polygon fill="black" stroke="black" points="539.97,-140.99 543.47,-150.99 546.97,-140.99 539.97,-140.99"/>
</g>
<!-- ParejasModule -->
<g id="node6" class="node">
<title>ParejasModule</title>
<polygon fill="#8dd3c7" stroke="black" points="509.97,-122 506.97,-126 485.97,-126 482.97,-122 410.03,-122 410.03,-86 509.97,-86 509.97,-122"/>
<text text-anchor="middle" x="460" y="-99.8" font-family="Times,serif" font-size="14.00">ParejasModule</text>
</g>
<!-- ParejasModule&#45;&gt;AppModule -->
<g id="edge5" class="edge">
<title>ParejasModule&#45;&gt;AppModule</title>
<path fill="none" stroke="black" d="M492.58,-122.11C492.58,-122.11 492.58,-140.99 492.58,-140.99"/>
<polygon fill="black" stroke="black" points="489.08,-140.99 492.58,-150.99 496.08,-140.99 489.08,-140.99"/>
</g>
<!-- PartidasModule -->
<g id="node7" class="node">
<title>PartidasModule</title>
<polygon fill="#8dd3c7" stroke="black" points="392.15,-122 389.15,-126 368.15,-126 365.15,-122 287.85,-122 287.85,-86 392.15,-86 392.15,-122"/>
<text text-anchor="middle" x="340" y="-99.8" font-family="Times,serif" font-size="14.00">PartidasModule</text>
</g>
<!-- PartidasModule&#45;&gt;AppModule -->
<g id="edge6" class="edge">
<title>PartidasModule&#45;&gt;AppModule</title>
<path fill="none" stroke="black" d="M340,-122.03C340,-138.4 340,-160 340,-160 340,-160 465.05,-160 465.05,-160"/>
<polygon fill="black" stroke="black" points="465.05,-163.5 475.05,-160 465.05,-156.5 465.05,-163.5"/>
</g>
<!-- SharedModule -->
<g id="node8" class="node">
<title>SharedModule</title>
<polygon fill="#8dd3c7" stroke="black" points="269.42,-122 266.42,-126 245.42,-126 242.42,-122 170.58,-122 170.58,-86 269.42,-86 269.42,-122"/>
<text text-anchor="middle" x="220" y="-99.8" font-family="Times,serif" font-size="14.00">SharedModule</text>
</g>
<!-- SharedModule&#45;&gt;AppModule -->
<g id="edge7" class="edge">
<title>SharedModule&#45;&gt;AppModule</title>
<path fill="none" stroke="black" d="M220,-122.11C220,-141.34 220,-169 220,-169 220,-169 465.08,-169 465.08,-169"/>
<polygon fill="black" stroke="black" points="465.08,-172.5 475.08,-169 465.08,-165.5 465.08,-172.5"/>
</g>
<!-- UbicacionesModule -->
<g id="node9" class="node">
<title>UbicacionesModule</title>
<polygon fill="#8dd3c7" stroke="black" points="152.24,-122 149.24,-126 128.24,-126 125.24,-122 23.76,-122 23.76,-86 152.24,-86 152.24,-122"/>
<text text-anchor="middle" x="88" y="-99.8" font-family="Times,serif" font-size="14.00">UbicacionesModule</text>
</g>
<!-- UbicacionesModule&#45;&gt;AppModule -->
<g id="edge8" class="edge">
<title>UbicacionesModule&#45;&gt;AppModule</title>
<path fill="none" stroke="black" d="M88,-122.29C88,-144.21 88,-178 88,-178 88,-178 465.08,-178 465.08,-178"/>
<polygon fill="black" stroke="black" points="465.08,-181.5 475.08,-178 465.08,-174.5 465.08,-181.5"/>
</g>
</g>
</svg>
