<?xml version="1.0" encoding="UTF-8" standalone="no"?>
<!DOCTYPE svg PUBLIC "-//W3C//DTD SVG 1.1//EN"
 "http://www.w3.org/Graphics/SVG/1.1/DTD/svg11.dtd">
<!-- Generated by graphviz version 2.47.0 (20210316.0004)
 -->
<!-- Title: dependencies Pages: 1 -->
<svg width="504pt" height="284pt"
 viewBox="0.00 0.00 504.00 284.00" xmlns="http://www.w3.org/2000/svg" xmlns:xlink="http://www.w3.org/1999/xlink">
<g id="graph0" class="graph" transform="scale(1 1) rotate(0) translate(4 280)">
<title>dependencies</title>
<polygon fill="white" stroke="transparent" points="-4,4 -4,-280 500,-280 500,4 -4,4"/>
<text text-anchor="start" x="227.01" y="-42.4" font-family="Times-12" font-weight="bold" font-size="14.00">Legend</text>
<polygon fill="#ffffb3" stroke="transparent" points="14,-10 14,-30 34,-30 34,-10 14,-10"/>
<text text-anchor="start" x="37.63" y="-15.4" font-family="Times-12" font-size="14.00"> &#160;Declarations</text>
<polygon fill="#8dd3c7" stroke="transparent" points="127,-10 127,-30 147,-30 147,-10 127,-10"/>
<text text-anchor="start" x="150.73" y="-15.4" font-family="Times-12" font-size="14.00"> &#160;Module</text>
<polygon fill="#80b1d3" stroke="transparent" points="213,-10 213,-30 233,-30 233,-10 213,-10"/>
<text text-anchor="start" x="236.78" y="-15.4" font-family="Times-12" font-size="14.00"> &#160;Bootstrap</text>
<polygon fill="#fdb462" stroke="transparent" points="310,-10 310,-30 330,-30 330,-10 310,-10"/>
<text text-anchor="start" x="333.67" y="-15.4" font-family="Times-12" font-size="14.00"> &#160;Providers</text>
<polygon fill="#fb8072" stroke="transparent" points="406,-10 406,-30 426,-30 426,-10 406,-10"/>
<text text-anchor="start" x="429.73" y="-15.4" font-family="Times-12" font-size="14.00"> &#160;Exports</text>
<g id="clust1" class="cluster">
<title>cluster_PartidasModule</title>
<polygon fill="none" stroke="black" stroke-dasharray="1,5" points="21,-70 21,-268 475,-268 475,-70 21,-70"/>
</g>
<g id="clust5" class="cluster">
<title>cluster_PartidasModule_imports</title>
<polygon fill="none" stroke="black" points="353,-78 353,-130 467,-130 467,-78 353,-78"/>
</g>
<g id="clust6" class="cluster">
<title>cluster_PartidasModule_exports</title>
<polygon fill="none" stroke="black" points="87,-208 87,-260 409,-260 409,-208 87,-208"/>
</g>
<g id="clust2" class="cluster">
<title>cluster_PartidasModule_declarations</title>
<polygon fill="none" stroke="black" points="29,-78 29,-130 345,-130 345,-78 29,-78"/>
</g>
<!-- PartidaDetailComponent -->
<g id="node1" class="node">
<title>PartidaDetailComponent</title>
<polygon fill="#ffffb3" stroke="black" points="336.69,-122 181.31,-122 181.31,-86 336.69,-86 336.69,-122"/>
<text text-anchor="middle" x="259" y="-99.8" font-family="Times,serif" font-size="14.00">PartidaDetailComponent</text>
</g>
<!-- PartidasModule -->
<g id="node3" class="node">
<title>PartidasModule</title>
<polygon fill="#8dd3c7" stroke="black" points="311.15,-187 308.15,-191 287.15,-191 284.15,-187 206.85,-187 206.85,-151 311.15,-151 311.15,-187"/>
<text text-anchor="middle" x="259" y="-164.8" font-family="Times,serif" font-size="14.00">PartidasModule</text>
</g>
<!-- PartidaDetailComponent&#45;&gt;PartidasModule -->
<g id="edge1" class="edge">
<title>PartidaDetailComponent&#45;&gt;PartidasModule</title>
<path fill="none" stroke="black" d="M259,-122.11C259,-122.11 259,-140.99 259,-140.99"/>
<polygon fill="black" stroke="black" points="255.5,-140.99 259,-150.99 262.5,-140.99 255.5,-140.99"/>
</g>
<!-- PartidasComponent -->
<g id="node2" class="node">
<title>PartidasComponent</title>
<polygon fill="#ffffb3" stroke="black" points="163.43,-122 36.57,-122 36.57,-86 163.43,-86 163.43,-122"/>
<text text-anchor="middle" x="100" y="-99.8" font-family="Times,serif" font-size="14.00">PartidasComponent</text>
</g>
<!-- PartidasComponent&#45;&gt;PartidasModule -->
<g id="edge2" class="edge">
<title>PartidasComponent&#45;&gt;PartidasModule</title>
<path fill="none" stroke="black" d="M129.12,-122.11C129.12,-141.34 129.12,-169 129.12,-169 129.12,-169 196.55,-169 196.55,-169"/>
<polygon fill="black" stroke="black" points="196.55,-172.5 206.55,-169 196.55,-165.5 196.55,-172.5"/>
</g>
<!-- PartidaDetailComponent  -->
<g id="node5" class="node">
<title>PartidaDetailComponent </title>
<polygon fill="#fb8072" stroke="black" points="401.19,-252 242.81,-252 242.81,-216 401.19,-216 401.19,-252"/>
<text text-anchor="middle" x="322" y="-229.8" font-family="Times,serif" font-size="14.00">PartidaDetailComponent </text>
</g>
<!-- PartidasModule&#45;&gt;PartidaDetailComponent  -->
<g id="edge4" class="edge">
<title>PartidasModule&#45;&gt;PartidaDetailComponent </title>
<path fill="none" stroke="black" stroke-dasharray="5,2" d="M276.99,-187.11C276.99,-187.11 276.99,-205.99 276.99,-205.99"/>
<polygon fill="black" stroke="black" points="273.49,-205.99 276.99,-215.99 280.49,-205.99 273.49,-205.99"/>
</g>
<!-- PartidasComponent  -->
<g id="node6" class="node">
<title>PartidasComponent </title>
<polygon fill="#fb8072" stroke="black" points="224.93,-252 95.07,-252 95.07,-216 224.93,-216 224.93,-252"/>
<text text-anchor="middle" x="160" y="-229.8" font-family="Times,serif" font-size="14.00">PartidasComponent </text>
</g>
<!-- PartidasModule&#45;&gt;PartidasComponent  -->
<g id="edge5" class="edge">
<title>PartidasModule&#45;&gt;PartidasComponent </title>
<path fill="none" stroke="black" stroke-dasharray="5,2" d="M215.82,-187.11C215.82,-187.11 215.82,-205.99 215.82,-205.99"/>
<polygon fill="black" stroke="black" points="212.32,-205.99 215.82,-215.99 219.32,-205.99 212.32,-205.99"/>
</g>
<!-- SharedModule -->
<g id="node4" class="node">
<title>SharedModule</title>
<polygon fill="#8dd3c7" stroke="black" points="459.42,-122 456.42,-126 435.42,-126 432.42,-122 360.58,-122 360.58,-86 459.42,-86 459.42,-122"/>
<text text-anchor="middle" x="410" y="-99.8" font-family="Times,serif" font-size="14.00">SharedModule</text>
</g>
<!-- SharedModule&#45;&gt;PartidasModule -->
<g id="edge3" class="edge">
<title>SharedModule&#45;&gt;PartidasModule</title>
<path fill="none" stroke="black" d="M381.07,-122.11C381.07,-141.34 381.07,-169 381.07,-169 381.07,-169 321.48,-169 321.48,-169"/>
<polygon fill="black" stroke="black" points="321.48,-165.5 311.48,-169 321.48,-172.5 321.48,-165.5"/>
</g>
</g>
</svg>
