<?xml version="1.0" encoding="UTF-8" standalone="no"?>
<!DOCTYPE svg PUBLIC "-//W3C//DTD SVG 1.1//EN"
 "http://www.w3.org/Graphics/SVG/1.1/DTD/svg11.dtd">
<!-- Generated by graphviz version 2.47.0 (20210316.0004)
 -->
<!-- Title: dependencies Pages: 1 -->
<svg width="504pt" height="211pt"
 viewBox="0.00 0.00 504.00 211.00" xmlns="http://www.w3.org/2000/svg" xmlns:xlink="http://www.w3.org/1999/xlink">
<g id="graph0" class="graph" transform="scale(1 1) rotate(0) translate(4 207)">
<title>dependencies</title>
<polygon fill="white" stroke="transparent" points="-4,4 -4,-207 500,-207 500,4 -4,4"/>
<text text-anchor="start" x="227.01" y="-42.4" font-family="Times-12" font-weight="bold" font-size="14.00">Legend</text>
<polygon fill="#ffffb3" stroke="transparent" points="14,-10 14,-30 34,-30 34,-10 14,-10"/>
<text text-anchor="start" x="37.63" y="-15.4" font-family="Times-12" font-size="14.00"> &#160;Declarations</text>
<polygon fill="#8dd3c7" stroke="transparent" points="127,-10 127,-30 147,-30 147,-10 127,-10"/>
<text text-anchor="start" x="150.73" y="-15.4" font-family="Times-12" font-size="14.00"> &#160;Module</text>
<polygon fill="#80b1d3" stroke="transparent" points="213,-10 213,-30 233,-30 233,-10 213,-10"/>
<text text-anchor="start" x="236.78" y="-15.4" font-family="Times-12" font-size="14.00"> &#160;Bootstrap</text>
<polygon fill="#fdb462" stroke="transparent" points="310,-10 310,-30 330,-30 330,-10 310,-10"/>
<text text-anchor="start" x="333.67" y="-15.4" font-family="Times-12" font-size="14.00"> &#160;Providers</text>
<polygon fill="#fb8072" stroke="transparent" points="406,-10 406,-30 426,-30 426,-10 406,-10"/>
<text text-anchor="start" x="429.73" y="-15.4" font-family="Times-12" font-size="14.00"> &#160;Exports</text>
<g id="clust1" class="cluster">
<title>cluster_OauthModule</title>
<polygon fill="none" stroke="black" stroke-dasharray="1,5" points="43,-70 43,-195 453,-195 453,-70 43,-70"/>
</g>
<g id="clust5" class="cluster">
<title>cluster_OauthModule_imports</title>
<polygon fill="none" stroke="black" points="331,-78 331,-130 445,-130 445,-78 331,-78"/>
</g>
<g id="clust2" class="cluster">
<title>cluster_OauthModule_declarations</title>
<polygon fill="none" stroke="black" points="51,-78 51,-130 323,-130 323,-78 51,-78"/>
</g>
<!-- LoginComponent -->
<g id="node1" class="node">
<title>LoginComponent</title>
<polygon fill="#ffffb3" stroke="black" points="315.28,-122 200.72,-122 200.72,-86 315.28,-86 315.28,-122"/>
<text text-anchor="middle" x="258" y="-99.8" font-family="Times,serif" font-size="14.00">LoginComponent</text>
</g>
<!-- OauthModule -->
<g id="node3" class="node">
<title>OauthModule</title>
<polygon fill="#8dd3c7" stroke="black" points="304.76,-187 301.76,-191 280.76,-191 277.76,-187 211.24,-187 211.24,-151 304.76,-151 304.76,-187"/>
<text text-anchor="middle" x="258" y="-164.8" font-family="Times,serif" font-size="14.00">OauthModule</text>
</g>
<!-- LoginComponent&#45;&gt;OauthModule -->
<g id="edge1" class="edge">
<title>LoginComponent&#45;&gt;OauthModule</title>
<path fill="none" stroke="black" d="M258,-122.11C258,-122.11 258,-140.99 258,-140.99"/>
<polygon fill="black" stroke="black" points="254.5,-140.99 258,-150.99 261.5,-140.99 254.5,-140.99"/>
</g>
<!-- SingUpComponent -->
<g id="node2" class="node">
<title>SingUpComponent</title>
<polygon fill="#ffffb3" stroke="black" points="183.11,-122 58.89,-122 58.89,-86 183.11,-86 183.11,-122"/>
<text text-anchor="middle" x="121" y="-99.8" font-family="Times,serif" font-size="14.00">SingUpComponent</text>
</g>
<!-- SingUpComponent&#45;&gt;OauthModule -->
<g id="edge2" class="edge">
<title>SingUpComponent&#45;&gt;OauthModule</title>
<path fill="none" stroke="black" d="M121,-122.11C121,-141.34 121,-169 121,-169 121,-169 201.24,-169 201.24,-169"/>
<polygon fill="black" stroke="black" points="201.24,-172.5 211.24,-169 201.24,-165.5 201.24,-172.5"/>
</g>
<!-- SharedModule -->
<g id="node4" class="node">
<title>SharedModule</title>
<polygon fill="#8dd3c7" stroke="black" points="437.42,-122 434.42,-126 413.42,-126 410.42,-122 338.58,-122 338.58,-86 437.42,-86 437.42,-122"/>
<text text-anchor="middle" x="388" y="-99.8" font-family="Times,serif" font-size="14.00">SharedModule</text>
</g>
<!-- SharedModule&#45;&gt;OauthModule -->
<g id="edge3" class="edge">
<title>SharedModule&#45;&gt;OauthModule</title>
<path fill="none" stroke="black" d="M388,-122.11C388,-141.34 388,-169 388,-169 388,-169 314.93,-169 314.93,-169"/>
<polygon fill="black" stroke="black" points="314.93,-165.5 304.93,-169 314.93,-172.5 314.93,-165.5"/>
</g>
</g>
</svg>
