<?xml version="1.0" encoding="UTF-8" standalone="no"?>
<!DOCTYPE svg PUBLIC "-//W3C//DTD SVG 1.1//EN"
 "http://www.w3.org/Graphics/SVG/1.1/DTD/svg11.dtd">
<!-- Generated by graphviz version 2.47.0 (20210316.0004)
 -->
<!-- Title: dependencies Pages: 1 -->
<svg width="504pt" height="211pt"
 viewBox="0.00 0.00 504.00 211.00" xmlns="http://www.w3.org/2000/svg" xmlns:xlink="http://www.w3.org/1999/xlink">
<g id="graph0" class="graph" transform="scale(1 1) rotate(0) translate(4 207)">
<title>dependencies</title>
<polygon fill="white" stroke="transparent" points="-4,4 -4,-207 500,-207 500,4 -4,4"/>
<text text-anchor="start" x="227.01" y="-42.4" font-family="Times-12" font-weight="bold" font-size="14.00">Legend</text>
<polygon fill="#ffffb3" stroke="transparent" points="14,-10 14,-30 34,-30 34,-10 14,-10"/>
<text text-anchor="start" x="37.63" y="-15.4" font-family="Times-12" font-size="14.00"> &#160;Declarations</text>
<polygon fill="#8dd3c7" stroke="transparent" points="127,-10 127,-30 147,-30 147,-10 127,-10"/>
<text text-anchor="start" x="150.73" y="-15.4" font-family="Times-12" font-size="14.00"> &#160;Module</text>
<polygon fill="#80b1d3" stroke="transparent" points="213,-10 213,-30 233,-30 233,-10 213,-10"/>
<text text-anchor="start" x="236.78" y="-15.4" font-family="Times-12" font-size="14.00"> &#160;Bootstrap</text>
<polygon fill="#fdb462" stroke="transparent" points="310,-10 310,-30 330,-30 330,-10 310,-10"/>
<text text-anchor="start" x="333.67" y="-15.4" font-family="Times-12" font-size="14.00"> &#160;Providers</text>
<polygon fill="#fb8072" stroke="transparent" points="406,-10 406,-30 426,-30 426,-10 406,-10"/>
<text text-anchor="start" x="429.73" y="-15.4" font-family="Times-12" font-size="14.00"> &#160;Exports</text>
<g id="clust1" class="cluster">
<title>cluster_OauthModule</title>
<polygon fill="none" stroke="black" stroke-dasharray="1,5" points="43,-70 43,-195 453,-195 453,-70 43,-70"/>
</g>
<g id="clust2" class="cluster">
<title>cluster_OauthModule_declarations</title>
<polygon fill="none" stroke="black" points="173,-78 173,-130 445,-130 445,-78 173,-78"/>
</g>
<g id="clust5" class="cluster">
<title>cluster_OauthModule_imports</title>
<polygon fill="none" stroke="black" points="51,-78 51,-130 165,-130 165,-78 51,-78"/>
</g>
<!-- LoginComponent -->
<g id="node1" class="node">
<title>LoginComponent</title>
<polygon fill="#ffffb3" stroke="black" points="437.28,-122 322.72,-122 322.72,-86 437.28,-86 437.28,-122"/>
<text text-anchor="middle" x="380" y="-99.8" font-family="Times,serif" font-size="14.00">LoginComponent</text>
</g>
<!-- OauthModule -->
<g id="node3" class="node">
<title>OauthModule</title>
<polygon fill="#8dd3c7" stroke="black" points="289.76,-187 286.76,-191 265.76,-191 262.76,-187 196.24,-187 196.24,-151 289.76,-151 289.76,-187"/>
<text text-anchor="middle" x="243" y="-164.8" font-family="Times,serif" font-size="14.00">OauthModule</text>
</g>
<!-- LoginComponent&#45;&gt;OauthModule -->
<g id="edge1" class="edge">
<title>LoginComponent&#45;&gt;OauthModule</title>
<path fill="none" stroke="black" d="M380,-122.11C380,-141.34 380,-169 380,-169 380,-169 299.76,-169 299.76,-169"/>
<polygon fill="black" stroke="black" points="299.76,-165.5 289.76,-169 299.76,-172.5 299.76,-165.5"/>
</g>
<!-- SingUpComponent -->
<g id="node2" class="node">
<title>SingUpComponent</title>
<polygon fill="#ffffb3" stroke="black" points="305.11,-122 180.89,-122 180.89,-86 305.11,-86 305.11,-122"/>
<text text-anchor="middle" x="243" y="-99.8" font-family="Times,serif" font-size="14.00">SingUpComponent</text>
</g>
<!-- SingUpComponent&#45;&gt;OauthModule -->
<g id="edge2" class="edge">
<title>SingUpComponent&#45;&gt;OauthModule</title>
<path fill="none" stroke="black" d="M243,-122.11C243,-122.11 243,-140.99 243,-140.99"/>
<polygon fill="black" stroke="black" points="239.5,-140.99 243,-150.99 246.5,-140.99 239.5,-140.99"/>
</g>
<!-- SharedModule -->
<g id="node4" class="node">
<title>SharedModule</title>
<polygon fill="#8dd3c7" stroke="black" points="157.42,-122 154.42,-126 133.42,-126 130.42,-122 58.58,-122 58.58,-86 157.42,-86 157.42,-122"/>
<text text-anchor="middle" x="108" y="-99.8" font-family="Times,serif" font-size="14.00">SharedModule</text>
</g>
<!-- SharedModule&#45;&gt;OauthModule -->
<g id="edge3" class="edge">
<title>SharedModule&#45;&gt;OauthModule</title>
<path fill="none" stroke="black" d="M108,-122.11C108,-141.34 108,-169 108,-169 108,-169 186.16,-169 186.16,-169"/>
<polygon fill="black" stroke="black" points="186.16,-172.5 196.16,-169 186.16,-165.5 186.16,-172.5"/>
</g>
</g>
</svg>
