<?xml version="1.0" encoding="UTF-8" standalone="no"?>
<!DOCTYPE svg PUBLIC "-//W3C//DTD SVG 1.1//EN"
 "http://www.w3.org/Graphics/SVG/1.1/DTD/svg11.dtd">
<!-- Generated by graphviz version 2.47.0 (20210316.0004)
 -->
<!-- Title: dependencies Pages: 1 -->
<svg width="505pt" height="211pt"
 viewBox="0.00 0.00 505.00 211.00" xmlns="http://www.w3.org/2000/svg" xmlns:xlink="http://www.w3.org/1999/xlink">
<g id="graph0" class="graph" transform="scale(1 1) rotate(0) translate(4 207)">
<title>dependencies</title>
<polygon fill="white" stroke="transparent" points="-4,4 -4,-207 501,-207 501,4 -4,4"/>
<text text-anchor="start" x="227.51" y="-42.4" font-family="Times-12" font-weight="bold" font-size="14.00">Legend</text>
<polygon fill="#ffffb3" stroke="transparent" points="14.5,-10 14.5,-30 34.5,-30 34.5,-10 14.5,-10"/>
<text text-anchor="start" x="38.13" y="-15.4" font-family="Times-12" font-size="14.00"> &#160;Declarations</text>
<polygon fill="#8dd3c7" stroke="transparent" points="127.5,-10 127.5,-30 147.5,-30 147.5,-10 127.5,-10"/>
<text text-anchor="start" x="151.23" y="-15.4" font-family="Times-12" font-size="14.00"> &#160;Module</text>
<polygon fill="#80b1d3" stroke="transparent" points="213.5,-10 213.5,-30 233.5,-30 233.5,-10 213.5,-10"/>
<text text-anchor="start" x="237.28" y="-15.4" font-family="Times-12" font-size="14.00"> &#160;Bootstrap</text>
<polygon fill="#fdb462" stroke="transparent" points="310.5,-10 310.5,-30 330.5,-30 330.5,-10 310.5,-10"/>
<text text-anchor="start" x="334.17" y="-15.4" font-family="Times-12" font-size="14.00"> &#160;Providers</text>
<polygon fill="#fb8072" stroke="transparent" points="406.5,-10 406.5,-30 426.5,-30 426.5,-10 406.5,-10"/>
<text text-anchor="start" x="430.23" y="-15.4" font-family="Times-12" font-size="14.00"> &#160;Exports</text>
<g id="clust1" class="cluster">
<title>cluster_JugadoresModule</title>
<polygon fill="none" stroke="black" stroke-dasharray="1,5" points="8,-70 8,-195 489,-195 489,-70 8,-70"/>
</g>
<g id="clust2" class="cluster">
<title>cluster_JugadoresModule_declarations</title>
<polygon fill="none" stroke="black" points="138,-78 138,-130 481,-130 481,-78 138,-78"/>
</g>
<g id="clust5" class="cluster">
<title>cluster_JugadoresModule_imports</title>
<polygon fill="none" stroke="black" points="16,-78 16,-130 130,-130 130,-78 16,-78"/>
</g>
<!-- JugadoresComponent -->
<g id="node1" class="node">
<title>JugadoresComponent</title>
<polygon fill="#ffffb3" stroke="black" points="472.81,-122 335.19,-122 335.19,-86 472.81,-86 472.81,-122"/>
<text text-anchor="middle" x="404" y="-99.8" font-family="Times,serif" font-size="14.00">JugadoresComponent</text>
</g>
<!-- JugadoresModule -->
<g id="node3" class="node">
<title>JugadoresModule</title>
<polygon fill="#8dd3c7" stroke="black" points="289.53,-187 286.53,-191 265.53,-191 262.53,-187 174.47,-187 174.47,-151 289.53,-151 289.53,-187"/>
<text text-anchor="middle" x="232" y="-164.8" font-family="Times,serif" font-size="14.00">JugadoresModule</text>
</g>
<!-- JugadoresComponent&#45;&gt;JugadoresModule -->
<g id="edge1" class="edge">
<title>JugadoresComponent&#45;&gt;JugadoresModule</title>
<path fill="none" stroke="black" d="M404,-122.11C404,-141.34 404,-169 404,-169 404,-169 299.75,-169 299.75,-169"/>
<polygon fill="black" stroke="black" points="299.75,-165.5 289.75,-169 299.75,-172.5 299.75,-165.5"/>
</g>
<!-- JugadoresDetailComponent -->
<g id="node2" class="node">
<title>JugadoresDetailComponent</title>
<polygon fill="#ffffb3" stroke="black" points="317.52,-122 146.48,-122 146.48,-86 317.52,-86 317.52,-122"/>
<text text-anchor="middle" x="232" y="-99.8" font-family="Times,serif" font-size="14.00">JugadoresDetailComponent</text>
</g>
<!-- JugadoresDetailComponent&#45;&gt;JugadoresModule -->
<g id="edge2" class="edge">
<title>JugadoresDetailComponent&#45;&gt;JugadoresModule</title>
<path fill="none" stroke="black" d="M232,-122.11C232,-122.11 232,-140.99 232,-140.99"/>
<polygon fill="black" stroke="black" points="228.5,-140.99 232,-150.99 235.5,-140.99 228.5,-140.99"/>
</g>
<!-- SharedModule -->
<g id="node4" class="node">
<title>SharedModule</title>
<polygon fill="#8dd3c7" stroke="black" points="122.42,-122 119.42,-126 98.42,-126 95.42,-122 23.58,-122 23.58,-86 122.42,-86 122.42,-122"/>
<text text-anchor="middle" x="73" y="-99.8" font-family="Times,serif" font-size="14.00">SharedModule</text>
</g>
<!-- SharedModule&#45;&gt;JugadoresModule -->
<g id="edge3" class="edge">
<title>SharedModule&#45;&gt;JugadoresModule</title>
<path fill="none" stroke="black" d="M73,-122.11C73,-141.34 73,-169 73,-169 73,-169 164.15,-169 164.15,-169"/>
<polygon fill="black" stroke="black" points="164.15,-172.5 174.15,-169 164.15,-165.5 164.15,-172.5"/>
</g>
</g>
</svg>
